<?xml version="1.0" encoding="utf-8"?>
<!-- Designed by Vexels.com - 2020 All Rights Reserved - https://vexels.com/terms-and-conditions/  -->
<svg version="1.1" id="Layer_1" xmlns="http://www.w3.org/2000/svg" xmlns:xlink="http://www.w3.org/1999/xlink" x="0px" y="0px"
	 viewBox="0 0 1200 1200" enable-background="new 0 0 1200 1200" xml:space="preserve">
<g>
	<g>
		<path fill="#3A3168" d="M547.481,1149.999c-1.692,0-3.395-0.086-5.103-0.267c-12.776-1.338-24.265-7.573-32.353-17.551
			L60.733,577.671c-8.088-9.981-11.804-22.515-10.466-35.291c1.341-12.776,7.573-24.265,17.554-32.353l554.51-449.294
			c9.984-8.088,22.506-11.801,35.291-10.463c12.776,1.338,24.268,7.573,32.353,17.556l449.292,554.504
			c8.088,9.981,11.804,22.515,10.466,35.291c-1.338,12.779-7.573,24.271-17.556,32.356l-554.507,449.292
			C569.023,1146.272,558.46,1149.999,547.481,1149.999z M652.577,81.398c-3.813,0-7.478,1.293-10.48,3.726L87.587,534.419
			c-3.467,2.807-5.63,6.798-6.096,11.232c-0.465,4.437,0.825,8.788,3.634,12.252l449.292,554.51
			c5.795,7.152,16.333,8.261,23.485,2.461l554.513-449.292c3.464-2.807,5.63-6.798,6.093-11.232
			c0.465-4.437-0.825-8.791-3.634-12.255L665.582,87.589c-2.807-3.467-6.798-5.633-11.232-6.098
			C653.756,81.429,653.165,81.398,652.577,81.398z"/>
	</g>
	<g>
		<path fill="#744EBF" d="M922.863,998.9l-729.73-99.396c-9.749-1.328-16.575-10.307-15.248-20.056l94.19-691.511
			c1.328-9.749,10.307-16.575,20.056-15.248l729.73,99.396c9.749,1.328,16.575,10.307,15.247,20.056l-94.19,691.511
			C941.591,993.402,932.612,1000.228,922.863,998.9z"/>
	</g>
	<g>
		<path fill="#FF3BAB" d="M1045.447,296.836v311.457c0,24.927-18.072,46.179-42.675,50.184l-775.661,126.27
			c-30.934,5.036-59.014-18.843-59.014-50.184V415.376c0-25.115,18.337-46.467,43.164-50.261l775.661-118.54
			C1017.706,241.87,1045.447,265.695,1045.447,296.836z"/>
	</g>
	<g>
		<path fill="#FFC219" d="M477.064,879.679v-82.857c0-11.917,8.658-22.069,20.426-23.949l549.026-87.71
			c14.734-2.354,28.078,9.028,28.078,23.949v83.948c0,11.935-8.683,22.096-20.473,23.956l-549.026,86.619
			C490.377,905.958,477.064,894.581,477.064,879.679z"/>
	</g>
	<g>
		<path fill="#FFFFFF" d="M363.757,535.693c-8.378-3.676-19.153-6.773-31.804-9.153c-8.484-1.798-15.143-3.531-19.797-5.162
			c-3.331-1.162-5.926-2.954-7.941-5.485c-2.004-2.514-2.233-6.879-2.071-10.09c0.412-8.111,2.954-14.744,7.765-20.279
			c4.685-5.382,12.043-8.924,21.871-10.53c6.043-0.989,12.339-0.627,18.716,1.065c2.216,0.588,4.423,1.346,6.567,2.252
			c6.427,2.715,13.741,2.578,20.062-0.373c6.221-2.907,10.931-8.311,12.927-14.828l3.425-11.202
			c3.303-10.792-1.525-22.57-11.475-28.005c-5.337-2.915-11.26-5.14-17.607-6.606c-10.898-2.514-22.208-2.843-33.627-0.981
			c-16.283,2.659-30.5,8.788-42.256,18.217c-11.617,9.32-20.659,20.946-26.879,34.553c-6.09,13.328-9.566,27.76-10.329,42.895
			c-0.95,18.741,1.611,33.011,7.826,43.63c6.238,10.658,14.273,18.153,23.878,22.267c8.362,3.593,18.897,6.622,32.078,9.242
			c8.453,1.792,15.118,3.531,19.794,5.162c3.283,1.148,5.847,2.96,7.832,5.53c1.675,2.177,2.405,5.677,2.166,10.407
			c-0.382,7.525-2.924,13.752-7.773,19.039c-4.847,5.284-12.42,8.799-22.506,10.446c-8.373,1.369-16.391,0.585-24.513-2.386
			c-3.007-1.098-5.859-2.411-8.473-3.899c-6.249-3.548-13.732-4.08-20.525-1.469c-6.907,2.662-12.183,8.178-14.479,15.14
			l-3.501,10.625c-3.138,9.501,0.086,20.087,8.021,26.342c6.469,5.098,14.304,9.067,23.284,11.795l0.003,0.003
			c8.309,2.52,16.926,3.782,25.759,3.782c5.159,0,10.393-0.429,15.678-1.293c16.269-2.659,30.517-8.788,42.351-18.22
			c11.706-9.331,20.789-20.898,26.999-34.377c6.093-13.214,9.568-27.596,10.335-42.747c0.939-18.507-1.642-32.621-7.893-43.154
			C381.414,547.368,373.375,539.916,363.757,535.693z"/>
		<path fill="#FFFFFF" d="M550.135,411.171c-3.161-12.099-14.945-19.694-27.437-17.643l-8.972,1.463
			c-9.017,1.472-16.391,7.723-19.243,16.313l-77.904,234.398c-2.656,7.988-0.981,16.584,4.479,22.991
			c4.677,5.488,11.369,8.526,18.459,8.526c1.341,0,2.695-0.109,4.053-0.329c9.147-1.5,16.556-7.865,19.337-16.612l14.111-44.386
			c0.482-1.519,1.865-2.676,3.52-2.946l61.644-10.067c2.266-0.348,4.393,0.964,4.905,3.021l7.511,30.419
			c2.988,12.096,15.07,19.99,27.518,17.947l3.824-0.627c6.801-1.109,12.843-5.036,16.578-10.778
			c3.674-5.641,4.808-12.595,3.116-19.073L550.135,411.171z M531.363,546.51c-0.399,0.602-1.321,1.653-3.035,1.934l-24.535,4.005
			c-2.269,0.379-3.593-0.867-4.064-1.416c-0.53-0.613-1.329-1.909-0.758-3.704l14.401-45.108c0.85-2.659,3.13-3.002,4.248-3.002
			c0.064,0,0.123,0,0.178,0.003c1.218,0.042,3.353,0.496,3.991,3.083l10.131,41.1C532.255,544.765,531.804,545.844,531.363,546.51z"
			/>
		<path fill="#FFFFFF" d="M772.038,573.551c-5.513-4.933-12.882-7.082-20.238-5.87l-52.393,8.557
			c-1.879,0.295-3.116-0.521-3.699-1.042c-0.521-0.468-1.388-1.491-1.307-3.088l9-177.947c0.365-7.227-2.528-14.148-7.941-18.989
			c-5.51-4.931-12.891-7.074-20.235-5.867l-2.06,0.337c-11.268,1.837-19.864,11.358-20.435,22.637l-11.305,223.525
			c-0.368,7.227,2.525,14.15,7.941,18.992c4.504,4.03,10.254,6.196,16.219,6.196c1.33,0,2.673-0.109,4.016-0.329l89.393-14.596
			c11.269-1.84,19.861-11.36,20.433-22.64l0.552-10.887C780.344,585.313,777.451,578.392,772.038,573.551z"/>
		<path fill="#FFFFFF" d="M880.885,393.89l67.929-11.093c11.271-1.837,19.864-11.361,20.435-22.64l0.532-10.524
			c0.365-7.227-2.531-14.15-7.943-18.992c-5.507-4.925-12.871-7.077-20.235-5.864l-92.969,15.182
			c-11.269,1.837-19.864,11.358-20.436,22.637l-11.307,223.528c-0.365,7.227,2.528,14.148,7.941,18.989
			c4.504,4.03,10.257,6.193,16.224,6.193c1.329,0,2.673-0.106,4.013-0.326l96.311-15.728c11.269-1.837,19.864-11.358,20.436-22.637
			l0.532-10.53c0.365-7.23-2.531-14.15-7.943-18.992c-5.513-4.928-12.882-7.068-20.232-5.864l-59.317,9.685
			c-1.876,0.295-3.113-0.524-3.696-1.042c-0.524-0.468-1.391-1.494-1.31-3.091l2.063-40.799c0.1-1.945,1.656-3.598,3.704-3.933
			l57.669-9.418c11.269-1.837,19.861-11.358,20.433-22.64l0.496-9.808c0.365-7.227-2.528-14.148-7.941-18.989
			c-5.51-4.928-12.88-7.079-20.235-5.867l-45.715,7.464c-1.865,0.293-3.116-0.521-3.696-1.04c-0.524-0.468-1.391-1.494-1.31-3.091
			l1.865-36.841C877.284,395.877,878.837,394.225,880.885,393.89z"/>
	</g>
	<g>
		<path fill="none" d="M914.766,788.177c3.202-4.66,4.872-10.059,4.964-16.046c0.089-5.937-1.321-10.572-4.309-14.167
			c-2.316-2.787-4.922-4.128-8.091-4.128c-0.638,0-1.302,0.056-1.987,0.164c-4.301,0.674-7.902,3.219-11.012,7.776
			c-3.211,4.702-4.883,10.123-4.972,16.107c-0.086,5.85,1.36,10.594,4.303,14.1c2.776,3.32,5.984,4.585,10.09,3.922
			C908.055,795.232,911.656,792.704,914.766,788.177z"/>
	</g>
	<g>
		<path fill="none" d="M686.656,823.995c3.202-4.657,4.872-10.056,4.964-16.046c0.089-5.937-1.321-10.572-4.306-14.162
			c-2.316-2.79-4.925-4.131-8.1-4.131c-0.638,0-1.296,0.053-1.982,0.162c-4.301,0.674-7.902,3.219-11.012,7.776
			c-3.211,4.705-4.883,10.126-4.972,16.107c-0.089,5.931,1.318,10.544,4.303,14.103c2.779,3.322,5.987,4.577,10.09,3.919
			C679.944,831.052,683.545,828.522,686.656,823.995z"/>
	</g>
	<g>
		<path fill="none" d="M750.181,796.444l0.003-0.003c1.338-1.996,2.043-4.875,2.096-8.554c0.033-2.227-0.254-5.114-1.82-6.213
			c-0.998-0.697-3.152-1.382-7.748-0.661l-5.36,0.842l-0.284,19.039l5.783-0.911C746.533,799.407,748.999,798.217,750.181,796.444z"
			/>
	</g>
	<g>
		<path fill="#FFFFFF" d="M561.674,831.409c-2.687-2.525-6.645-4.178-11.762-4.911c-8.283-1.182-10.887-2.386-12.124-3.189
			c-1.681-1.084-3.673-3.214-3.618-7.182c0.042-2.832,0.964-5.298,2.743-7.328v-0.003c1.767-2.012,4.15-3.267,7.079-3.729
			c5.401-0.847,10.661,0.29,15.675,3.378l4.407-8.211c-2.23-1.594-4.769-2.768-7.578-3.501c-3.626-0.953-7.319-1.143-10.968-0.569
			c-5.616,0.881-10.184,3.264-13.969,7.28c-3.726,3.955-5.585,8.952-5.677,15.279c-0.092,6.087,1.146,10.273,3.682,12.442
			c2.782,2.386,7.464,4.027,13.922,4.883c5.042,0.722,8.27,1.695,10.182,3.066c1.572,1.129,3.431,3.311,3.372,7.288
			c-0.045,2.943-1.048,5.48-2.982,7.534c-1.881,1.993-4.415,3.247-7.539,3.738c-5.661,0.881-11.622-1.162-17.785-6.09l-5.268,8.487
			c6.508,5.697,13.615,7.851,21.693,6.583c6.037-0.945,10.784-3.487,14.513-7.768c3.724-4.276,5.574-9.262,5.664-15.24
			C565.42,837.892,564.191,833.775,561.674,831.409z"/>
	</g>
	<g>
		<polygon fill="#FFFFFF" points="592.051,790.544 584.214,791.776 583.205,859.841 591.042,858.609 591.474,829.553 
			621.364,824.859 620.932,853.916 628.772,852.684 629.781,784.621 621.941,785.853 621.484,816.704 591.594,821.398 		"/>
	</g>
	<g>
		<path fill="#FFFFFF" d="M696.403,832.702c5.847-7.723,8.891-16.798,9.042-26.974c0.148-10.02-2.553-18.011-8.024-23.747
			c-4.398-4.607-9.554-6.879-15.675-6.879c-1.399,0-2.846,0.12-4.345,0.357c-8.3,1.302-15.176,5.686-21.021,13.398
			c-5.845,7.72-8.888,16.798-9.039,26.974c-0.151,10.023,2.55,18.013,8.021,23.747c5.399,5.658,11.943,7.798,20.02,6.525
			C683.685,844.802,690.558,840.417,696.403,832.702z M661.176,831.47c-3.846-4.588-5.742-10.594-5.636-17.852
			c0.106-7.121,2.113-13.596,5.965-19.24c3.991-5.847,8.986-9.281,14.842-10.201c6.031-0.931,11.335,1.12,15.357,5.962
			c3.838,4.618,5.73,10.639,5.625,17.896v0.003c-0.109,7.132-2.115,13.59-5.967,19.19c-3.988,5.808-8.98,9.22-14.833,10.137
			c-0.998,0.156-1.973,0.234-2.918,0.234C668.757,837.599,664.584,835.545,661.176,831.47z"/>
	</g>
	<g>
		<path fill="#FFFFFF" d="M760.053,805.831c3.941-4.362,6.001-10.814,6.126-19.178c0.12-8.214-1.605-13.969-5.131-17.11
			c-3.512-3.122-9.549-4.041-17.949-2.715l-19.1,2.999l-1.009,68.063l7.84-1.232l0.307-20.603l10.457-1.642
			C749.872,813.114,756.084,810.227,760.053,805.831z M731.716,776.962l10.109-1.589c5.279-0.817,9.173-0.293,11.912,1.63
			c2.899,2.035,4.328,5.725,4.25,10.968c-0.07,4.799-1.098,8.718-3.06,11.648c-2.107,3.152-5.873,5.173-11.19,6.006l-12.478,1.959
			L731.716,776.962z"/>
	</g>
	<g>
		<polygon fill="#FFFFFF" points="807.541,756.707 806.532,824.773 814.37,823.541 815.153,770.604 847.484,818.343 
			856.879,816.866 857.888,748.8 850.051,750.032 849.248,804.215 816.07,755.367 		"/>
	</g>
	<g>
		<path fill="#FFFFFF" d="M924.513,796.882c5.847-7.72,8.891-16.798,9.042-26.974c0.148-10.02-2.553-18.011-8.024-23.747
			c-4.395-4.607-9.554-6.876-15.681-6.876c-1.396,0-2.84,0.117-4.34,0.354c-8.3,1.302-15.176,5.686-21.021,13.401
			c-5.845,7.72-8.888,16.795-9.039,26.971c-0.151,10.025,2.55,18.016,8.021,23.749c5.396,5.658,11.94,7.799,20.02,6.525
			C911.795,808.981,918.671,804.597,924.513,796.882z M889.286,795.65c-3.846-4.585-5.742-10.591-5.636-17.849
			c0.106-7.124,2.113-13.599,5.965-19.24c3.991-5.847,8.986-9.281,14.842-10.201c6.015-0.937,11.33,1.112,15.357,5.959
			c3.838,4.621,5.73,10.644,5.625,17.899v0.003c-0.109,7.13-2.115,13.585-5.967,19.19c-3.988,5.806-8.98,9.214-14.833,10.137
			c-0.959,0.151-1.904,0.226-2.823,0.226C896.953,801.773,892.664,799.688,889.286,795.65z"/>
	</g>
	<g>
		<polygon fill="#FFFFFF" points="1017.253,723.777 1002.094,776.694 990.095,728.041 980.359,729.569 966.769,782.191 
			953.226,733.83 944.227,735.243 962.767,800.24 968.511,799.337 984.81,737.022 999.438,794.482 1005.16,793.582 
			1025.721,722.448 		"/>
	</g>
</g>
</svg>
