<svg width="27" height="26" fill="none" xmlns="http://www.w3.org/2000/svg">
    <rect x=".25" y=".25" width="26.5" height="25.5" rx="12.75" fill="#fff" />
    <path
        d="m18.547 8.33-.96.663-4.086 2.684-4.086-2.71-.96-.663a1.607 1.607 0 0 0-.793-.296 1.67 1.67 0 0 0-.848.139 1.435 1.435 0 0 0-.62.528c-.145.225-.21.484-.19.743v7.68c0 .24.107.469.298.638.191.169.45.264.721.264h2.392v-5.116l4.086 2.71 4.086-2.71V18h2.392c.27 0 .53-.095.72-.264a.852.852 0 0 0 .3-.637V9.418a1.205 1.205 0 0 0-.204-.733 1.441 1.441 0 0 0-.622-.516 1.672 1.672 0 0 0-.84-.133 1.607 1.607 0 0 0-.786.295Z"
        fill="#212121" />
    <rect x=".25" y=".25" width="26.5" height="25.5" rx="12.75" stroke="#6C6C6C" stroke-width=".5" />
</svg>