<svg width="31" height="30" viewBox="0 0 31 30" fill="none" xmlns="http://www.w3.org/2000/svg">
    <path
        d="M27.261 12.5519H26.2542V12.5H15.0042V17.5H22.0685C21.0379 20.4106 18.2685 22.5 15.0042 22.5C10.8623 22.5 7.50415 19.1419 7.50415 15C7.50415 10.8581 10.8623 7.5 15.0042 7.5C16.916 7.5 18.6554 8.22125 19.9798 9.39937L23.5154 5.86375C21.2829 3.78312 18.2967 2.5 15.0042 2.5C8.10103 2.5 2.50415 8.09687 2.50415 15C2.50415 21.9031 8.10103 27.5 15.0042 27.5C21.9073 27.5 27.5042 21.9031 27.5042 15C27.5042 14.1619 27.4179 13.3438 27.261 12.5519Z"
        fill="#FFC107" />
    <path
        d="M3.94543 9.18187L8.05231 12.1938C9.16356 9.4425 11.8548 7.5 15.0042 7.5C16.9161 7.5 18.6554 8.22125 19.9798 9.39937L23.5154 5.86375C21.2829 3.78312 18.2967 2.5 15.0042 2.5C10.2029 2.5 6.03918 5.21062 3.94543 9.18187Z"
        fill="#FF3D00" />
    <path
        d="M15.0041 27.4999C18.2329 27.4999 21.1666 26.2643 23.3847 24.2549L19.516 20.9812C18.2188 21.9677 16.6338 22.5012 15.0041 22.4999C11.7529 22.4999 8.99223 20.4268 7.95223 17.5337L3.87598 20.6743C5.94473 24.7224 10.146 27.4999 15.0041 27.4999Z"
        fill="#4CAF50" />
    <path
        d="M27.261 12.5519H26.2542V12.5H15.0042V17.5H22.0685C21.5755 18.8853 20.6875 20.0957 19.5142 20.9819L19.516 20.9806L23.3848 24.2544C23.111 24.5031 27.5042 21.25 27.5042 15C27.5042 14.1619 27.4179 13.3438 27.261 12.5519Z"
        fill="#1976D2" />
</svg>