<svg width="20" height="20" viewBox="0 0 20 20" fill="none" xmlns="http://www.w3.org/2000/svg">
    <path
        d="M10.0001 18.3333C5.40008 18.3283 1.67175 14.6 1.66675 9.99999V9.83332C1.75841 5.25415 5.52925 1.60665 10.1084 1.66665C14.6892 1.72832 18.3617 5.47415 18.3317 10.0542C18.3017 14.635 14.5809 18.3333 10.0001 18.3333ZM9.98675 16.6667H10.0001C11.7676 16.6649 13.4621 15.9613 14.711 14.7105C15.9599 13.4597 16.661 11.7642 16.6601 9.99666C16.6592 8.22913 15.9564 6.53429 14.7063 5.28477C13.4561 4.03525 11.7609 3.33332 9.99341 3.33332C8.22588 3.33332 6.53069 4.03525 5.28055 5.28477C4.0304 6.53429 3.32763 8.22913 3.32675 9.99666C3.32587 11.7642 4.02694 13.4597 5.27584 14.7105C6.52473 15.9613 8.21922 16.6649 9.98675 16.6667ZM10.8334 15H9.16675V13.3333H10.8334V15ZM10.8334 12.5H9.16675C9.15382 11.9671 9.28379 11.4404 9.54316 10.9747C9.80254 10.509 10.1819 10.1212 10.6417 9.85165C11.1917 9.42999 11.6667 9.06665 11.6667 8.33332C11.6667 7.89129 11.4912 7.46737 11.1786 7.15481C10.866 6.84225 10.4421 6.66665 10.0001 6.66665C9.55805 6.66665 9.13413 6.84225 8.82157 7.15481C8.50901 7.46737 8.33341 7.89129 8.33341 8.33332H6.66675V8.25832C6.67669 7.37427 7.03742 6.53037 7.66958 5.91228C8.30173 5.29419 9.15353 4.95254 10.0376 4.96249C10.9216 4.97243 11.7655 5.33316 12.3836 5.96531C13.0017 6.59747 13.3434 7.44927 13.3334 8.33332C13.304 8.77674 13.1711 9.20709 12.9453 9.58987C12.7195 9.97264 12.4072 10.2972 12.0334 10.5375C11.6954 10.7497 11.4111 11.0373 11.2029 11.3778C10.9947 11.7183 10.8682 12.1024 10.8334 12.5Z"
        fill="black" />
</svg>