<svg width="20" height="20" viewBox="0 0 20 20" fill="none" xmlns="http://www.w3.org/2000/svg">
    <path
        d="M16.25 18.75H8.75C8.41848 18.75 8.10054 18.6183 7.86612 18.3839C7.6317 18.1495 7.5 17.8315 7.5 17.5V15.625H8.75V17.5H16.25V2.5H8.75V4.375H7.5V2.5C7.5 2.16848 7.6317 1.85054 7.86612 1.61612C8.10054 1.3817 8.41848 1.25 8.75 1.25H16.25C16.5815 1.25 16.8995 1.3817 17.1339 1.61612C17.3683 1.85054 17.5 2.16848 17.5 2.5V17.5C17.5 17.8315 17.3683 18.1495 17.1339 18.3839C16.8995 18.6183 16.5815 18.75 16.25 18.75Z"
        fill="black" />
    <path
        d="M9.11875 12.8688L11.3562 10.625H2.5V9.375H11.3562L9.11875 7.13125L10 6.25L13.75 10L10 13.75L9.11875 12.8688Z"
        fill="black" />
</svg>