<svg width="70" height="70" viewBox="0 0 70 70" fill="none" xmlns="http://www.w3.org/2000/svg">
    <path
        d="M60.3786 12.4485L61.0831 13.2432L61.8341 12.4923L69 5.32632V25.25H49.0763L55.5997 18.7266L56.2517 18.0746L55.6546 17.3719C50.6778 11.516 43.3095 7.75 35 7.75C20.2766 7.75 8.29353 19.4058 7.76798 34H1.01442C1.5433 15.6829 16.5547 1 35 1C45.1181 1 54.1606 5.4333 60.3786 12.4485ZM14.4003 51.2734L13.7483 51.9254L14.3454 52.6281C19.3222 58.484 26.6905 62.25 35 62.25C49.7234 62.25 61.7065 50.5942 62.232 36H68.9856C68.4567 54.3171 53.4453 69 35 69C24.8954 69 15.8392 64.5665 9.62139 57.5515L8.91693 56.7568L8.16594 57.5077L1 64.6737V44.75H20.9237L14.4003 51.2734Z"
        stroke="#1778CD" stroke-width="2" />
    <path
        d="M41.6667 37.625C41.2799 36.9387 40.7564 36.3391 40.1286 35.8632C39.5008 35.3873 38.782 35.0453 38.0167 34.8584C37.2986 34.6429 36.5699 34.4649 35.8334 34.325V26.7667C37.2976 26.9237 38.6946 27.4641 39.8834 28.3334C39.9654 28.4061 40.061 28.462 40.1647 28.4978C40.2684 28.5337 40.3781 28.5487 40.4876 28.5422C40.5971 28.5356 40.7042 28.5075 40.8029 28.4595C40.9015 28.4115 40.9897 28.3446 41.0625 28.2625C41.1353 28.1804 41.1912 28.0848 41.227 27.9812C41.2628 27.8775 41.2779 27.7678 41.2713 27.6583C41.2647 27.5488 41.2367 27.4416 41.1887 27.343C41.1407 27.2444 41.0738 27.1561 40.9917 27.0834C39.5003 25.9347 37.7093 25.2403 35.8334 25.0834V22.5C35.8334 22.279 35.7456 22.067 35.5893 21.9108C35.433 21.7545 35.221 21.6667 35 21.6667C34.779 21.6667 34.567 21.7545 34.4108 21.9108C34.2545 22.067 34.1667 22.279 34.1667 22.5V25C30.5 25.0834 28.475 26.9084 27.8584 28.4834C27.447 29.4976 27.4079 30.6246 27.748 31.6649C28.0882 32.7052 28.7856 33.5914 29.7167 34.1667C31.072 34.9929 32.5901 35.516 34.1667 35.7V43.3334C31.9911 43.2238 29.907 42.424 28.2167 41.05C28.1413 40.9602 28.0477 40.8874 27.9422 40.8363C27.8367 40.7851 27.7216 40.7568 27.6044 40.7532C27.4872 40.7496 27.3705 40.7707 27.2621 40.8153C27.1536 40.8598 27.0558 40.9268 26.9749 41.0117C26.8941 41.0967 26.8321 41.1977 26.793 41.3083C26.7539 41.4188 26.7386 41.5364 26.7481 41.6533C26.7575 41.7701 26.7915 41.8837 26.8479 41.9865C26.9042 42.0894 26.9816 42.1791 27.075 42.25C29.0683 43.9282 31.5632 44.8956 34.1667 45V47.5C34.1667 47.721 34.2545 47.933 34.4108 48.0893C34.567 48.2456 34.779 48.3334 35 48.3334C35.221 48.3334 35.433 48.2456 35.5893 48.0893C35.7456 47.933 35.8334 47.721 35.8334 47.5V45C38.1834 44.8417 40.8917 44.0917 41.9167 41.0334C42.1021 40.4769 42.1755 39.8892 42.1326 39.3042C42.0897 38.7192 41.9313 38.1485 41.6667 37.625ZM30.6584 32.7667C30.0499 32.4045 29.5905 31.8371 29.3629 31.1665C29.1353 30.4959 29.1544 29.7661 29.4167 29.1084C29.5084 28.8584 30.4417 26.7667 34.1667 26.6667V34C32.9236 33.8401 31.7281 33.4198 30.6584 32.7667ZM40.3334 40.4667C39.7334 42.25 38.4 43.1084 35.8334 43.3V36.025C36.3667 36.1417 36.9167 36.275 37.5 36.45C38.0511 36.5752 38.5709 36.8111 39.0279 37.1435C39.4849 37.4758 39.8695 37.8977 40.1584 38.3834C40.4852 39.0287 40.548 39.7759 40.3334 40.4667Z"
        fill="#1778CD" />
</svg>