<svg width="60" height="60" viewBox="0 0 60 60" fill="none" xmlns="http://www.w3.org/2000/svg">
    <g clip-path="url(#clip0_96_103)">
        <path
            d="M21.7724 42.2068C25.083 49.3534 35.1269 49.5912 38.2666 42.2018C37.3681 41.2054 36.5478 40.0219 35.8154 38.9648L35.7958 38.9395C34.2675 40.1989 32.4169 40.998 29.9999 40.993C27.3974 40.9879 25.4345 39.9562 23.8281 38.4338C23.7304 38.3427 23.6376 38.2517 23.5449 38.1556C23.3154 38.8182 23.0224 39.6122 22.7099 40.3507C22.4121 41.0587 22.0849 41.7264 21.7724 42.2068ZM39.3896 41.605C43.0371 44.058 51.3378 44.6953 54.5654 46.5565C55.6591 47.1887 56.6455 47.9929 57.4414 49.0803C59.0966 51.3462 62.4853 59.5701 56.9921 60.005H46.6601L47.9296 45.2769C45.2587 44.7357 42.4121 44.0732 39.4628 42.3889C39.3066 42.3889 39.248 42.4597 39.0185 42.6722C36.9628 50.7999 24.3554 51.9936 20.8496 42.4901C18.1005 43.9265 15.2978 44.7458 12.0996 45.2567L14.0917 60.0101H3.01264C-2.48052 59.5751 0.908147 51.3512 2.56342 49.0854C3.35932 47.998 4.34565 47.1938 5.4394 46.5616C8.71576 44.6598 17.2509 44.0377 20.7958 41.4735C21.0546 41.0689 21.3378 40.4771 21.6064 39.8398C22.0117 38.8788 22.3828 37.8268 22.622 37.1086C21.6308 35.8998 20.7812 34.5342 19.9658 33.1939L17.373 28.9202C17.1874 28.905 17.0019 28.8645 16.8115 28.8089C14.6972 28.121 12.9345 23.2454 13.2812 20.9441C13.4765 19.6392 13.9257 19.1688 14.6435 18.8856C14.6093 18.7794 14.5898 18.6681 14.5898 18.5467V13.6306C14.5898 11.7845 15.1269 9.96879 15.9912 8.31997C16.9433 6.51436 18.2958 4.90599 19.7753 3.68202C22.7978 1.19867 26.7138 -0.0455352 30.6103 -1.54923e-05C34.4726 0.0404464 38.3251 1.3504 41.2695 3.93997C42.6904 5.18923 43.8915 6.82794 44.7265 8.63861C45.5419 10.4038 46.0156 12.3358 46.0156 14.2325V18.2888C46.0156 18.8654 45.5664 19.3307 45.0097 19.3307C44.4531 19.3307 44.0039 18.8654 44.0039 18.2888V14.2325C44.0039 12.6443 43.6035 11.0208 42.9199 9.53383C42.207 7.98616 41.1816 6.59022 39.9706 5.5281C37.3876 3.25717 33.999 2.11412 30.5908 2.07872C27.1386 2.03825 23.6816 3.13073 21.0253 5.32579C19.7412 6.38791 18.5693 7.77374 17.749 9.32646C17.041 10.6769 16.6015 12.1537 16.6015 13.6407V18.3343L16.6308 18.3242L17.4609 19.3914C17.3925 17.5605 17.3876 15.6082 17.4658 13.8835C17.5244 13.2816 17.6318 12.6848 17.7978 12.0829C18.4814 9.54394 20.205 7.50062 22.3339 6.09456C27.8466 2.45805 35.8642 2.97394 40.4296 8.08731C41.9189 9.75637 42.8564 11.9717 43.0566 14.9052L42.8906 22.1226C43.6328 22.3552 44.1113 22.8458 44.3066 23.6399C44.5214 24.5149 44.2871 25.754 43.5693 27.4382C43.5546 27.4686 43.54 27.4989 43.5253 27.5293L40.4638 32.7489C39.3408 34.6658 38.1982 36.5877 36.7138 38.105L36.8066 38.2365C37.583 39.3593 38.4667 40.6339 39.3896 41.605ZM18.8623 23.1341L20.0439 26.4924C20.1708 26.8768 20.2099 27.2157 20.1562 27.504L20.166 27.4939C22.0019 29.5979 24.2626 31.1203 26.9775 32.0206C27.1142 31.6969 27.3046 31.4086 27.583 31.186C28.413 30.5235 30.8398 30.5842 31.5917 31.2265C32.2216 31.7677 32.2314 33.0018 31.7626 33.6491C30.791 34.9945 26.7529 33.8616 25.4003 33.4114C23.2031 32.6831 21.2109 30.8977 19.3994 29.3248L21.2402 32.3544C22.3193 34.1296 23.4472 35.9352 24.8486 37.2654C26.1962 38.545 27.832 39.4049 29.9999 39.415C32.3437 39.42 34.0576 38.5198 35.4492 37.1744C36.8945 35.7734 38.0371 33.8464 39.165 31.9295L42.1874 26.7706C42.749 25.4404 42.9589 24.5452 42.8271 24.0243C42.749 23.7107 42.4169 23.559 41.8554 23.5337C41.7333 23.5286 41.6113 23.5286 41.4892 23.5286C41.3525 23.5337 41.2109 23.5438 41.0644 23.559C40.9863 23.564 40.9082 23.559 40.83 23.5438C40.5615 23.559 40.2831 23.5387 39.9999 23.4983L41.0351 18.749C33.3496 20.0034 27.6025 14.0909 19.4775 17.5655L20.0634 23.1644C19.7363 23.1796 19.4238 23.1695 19.1357 23.124C19.0429 23.1189 18.9501 23.129 18.8623 23.1341Z"
            fill="#636363" />
    </g>
    <defs>
        <clipPath id="clip0_96_103">
            <rect width="60" height="60" fill="white" />
        </clipPath>
    </defs>
</svg>