<svg width="27" height="27" viewBox="0 0 27 27" fill="none" xmlns="http://www.w3.org/2000/svg">
    <rect x="0.25" y="0.25" width="26.5" height="26.5" rx="13.25" fill="white" />
    <path
        d="M21 7.78181C20.4484 8.07471 19.8481 8.28551 19.2298 8.36761C19.8717 7.89816 20.3525 7.15652 20.5818 6.28181C19.9794 6.72291 19.3195 7.03222 18.6313 7.19601C18.3437 6.81752 17.9958 6.516 17.6094 6.31023C17.2229 6.10447 16.8062 5.99886 16.3852 6.00001C14.6816 6.00001 13.3116 7.69971 13.3116 9.78551C13.3116 10.0784 13.3405 10.3713 13.3873 10.6531C10.8366 10.4889 8.56159 8.98891 7.04915 6.69232C6.77357 7.27171 6.62916 7.93143 6.63093 8.60282C6.63093 9.91643 7.17354 11.0747 8.00096 11.7559C7.51335 11.7323 7.03715 11.5673 6.6111 11.2744V11.321C6.6111 13.1605 7.66747 14.6849 9.07535 15.0355C8.81101 15.12 8.53907 15.1633 8.26595 15.1642C8.06586 15.1642 7.87658 15.1398 7.68549 15.1065C8.07487 16.6065 9.20875 17.696 10.5589 17.7315C9.50258 18.75 8.17943 19.3491 6.7427 19.3491C6.48492 19.3491 6.24697 19.338 6 19.3025C7.36282 20.3787 8.97981 21 10.7212 21C16.3744 21 19.4677 15.2352 19.4677 10.2315C19.4677 10.0673 19.4677 9.90311 19.4587 9.73891C20.0572 9.19971 20.5818 8.53181 21 7.78181Z"
        fill="#1D1D1D" />
    <rect x="0.25" y="0.25" width="26.5" height="26.5" rx="13.25" stroke="#737373" stroke-width="0.5" />
</svg>