<svg width="27" height="27" viewBox="0 0 27 27" fill="none" xmlns="http://www.w3.org/2000/svg">
    <rect x="0.25" y="0.25" width="26.5" height="26.5" rx="13.25" fill="white" />
    <path
        d="M15.5547 16.4129V18.1791C15.5547 18.553 15.4231 18.74 15.1599 18.74C15.0047 18.74 14.8529 18.6786 14.7045 18.5558V16.0363C14.8529 15.9135 15.0047 15.8521 15.1599 15.8521C15.4231 15.8521 15.5547 16.0391 15.5547 16.4129ZM18.9757 16.4213V16.8064H18.0648V16.4213C18.0648 16.0419 18.2166 15.8521 18.5202 15.8521C18.8239 15.8521 18.9757 16.0419 18.9757 16.4213ZM9.19838 14.5965H10.2814V13.8097H7.12348V14.5965H8.18623V19.3594H9.19838V14.5965ZM12.1134 19.3594H13.0142V15.2243H12.1134V18.3884C11.9109 18.6228 11.7186 18.74 11.5364 18.74C11.415 18.74 11.3441 18.6814 11.3239 18.5642C11.3171 18.5474 11.3138 18.4498 11.3138 18.2712V15.2243H10.413V18.4972C10.413 18.7706 10.4399 18.9743 10.4939 19.1083C10.5749 19.3147 10.7706 19.418 11.081 19.418C11.4049 19.418 11.749 19.2478 12.1134 18.9074V19.3594ZM16.4555 18.1205V16.4715C16.4555 16.0642 16.4251 15.7879 16.3644 15.6429C16.2497 15.3304 16.0101 15.1741 15.6457 15.1741C15.3084 15.1741 14.9946 15.3248 14.7045 15.6261V13.8097H13.8036V19.3594H14.7045V18.9576C15.0081 19.2645 15.3219 19.418 15.6457 19.418C16.0101 19.418 16.2497 19.2645 16.3644 18.9576C16.4251 18.8069 16.4555 18.5279 16.4555 18.1205ZM19.8765 18.0368V17.928H18.9555C18.9555 18.2126 18.9487 18.3828 18.9352 18.4386C18.888 18.6395 18.753 18.74 18.5304 18.74C18.22 18.74 18.0648 18.5474 18.0648 18.1624V17.4342H19.8765V16.572C19.8765 16.1311 19.7854 15.8075 19.6032 15.601C19.3401 15.3164 18.9825 15.1741 18.5304 15.1741C18.0715 15.1741 17.7105 15.3164 17.4474 15.601C17.2584 15.8075 17.164 16.1311 17.164 16.572V18.0201C17.164 18.4609 17.2618 18.7846 17.4575 18.9911C17.7206 19.2757 18.085 19.418 18.5506 19.418C19.0364 19.418 19.4008 19.2701 19.6437 18.9743C19.7652 18.8237 19.836 18.673 19.8563 18.5223C19.8698 18.4721 19.8765 18.3103 19.8765 18.0368ZM13.7227 10.3945V8.63672C13.7227 8.25167 13.5776 8.05915 13.2874 8.05915C12.9973 8.05915 12.8522 8.25167 12.8522 8.63672V10.3945C12.8522 10.7852 12.9973 10.9805 13.2874 10.9805C13.5776 10.9805 13.7227 10.7852 13.7227 10.3945ZM21 16.6808C21 17.9866 20.9123 18.9632 20.7368 19.6105C20.6424 19.9397 20.4467 20.216 20.1498 20.4392C19.8529 20.6624 19.5088 20.7907 19.1174 20.8242C17.8758 20.9414 16.0034 21 13.5 21C10.9966 21 9.12416 20.9414 7.88259 20.8242C7.49123 20.7907 7.14541 20.6624 6.84514 20.4392C6.54487 20.216 6.35088 19.9397 6.26316 19.6105C6.08772 18.9855 6 18.0089 6 16.6808C6 15.375 6.08772 14.3984 6.26316 13.7511C6.35762 13.4219 6.55331 13.1456 6.8502 12.9224C7.1471 12.6992 7.4946 12.5681 7.89271 12.529C9.12753 12.4174 10.9966 12.3616 13.5 12.3616C16.0034 12.3616 17.8758 12.4174 19.1174 12.529C19.5088 12.5681 19.8546 12.6992 20.1549 12.9224C20.4551 13.1456 20.6491 13.4219 20.7368 13.7511C20.9123 14.3761 21 15.3527 21 16.6808ZM10.8988 6H11.9312L10.7065 9.33984V11.6083H9.69433V9.33984C9.59986 8.9269 9.39406 8.33538 9.07692 7.56529C8.82726 6.99051 8.60796 6.46875 8.41903 6H9.4919L10.2105 8.20145L10.8988 6ZM14.6437 8.78739V10.2522C14.6437 10.7042 14.5493 11.0335 14.3603 11.24C14.1039 11.5246 13.7463 11.6669 13.2874 11.6669C12.8354 11.6669 12.4811 11.5246 12.2247 11.24C12.0358 11.0279 11.9413 10.6987 11.9413 10.2522V8.78739C11.9413 8.34096 12.0358 8.01451 12.2247 7.80804C12.4811 7.52344 12.8354 7.38114 13.2874 7.38114C13.7463 7.38114 14.1039 7.52344 14.3603 7.80804C14.5493 8.01451 14.6437 8.34096 14.6437 8.78739ZM18.0344 7.43136V11.6083H17.1134V11.1479C16.7557 11.4939 16.4082 11.6669 16.0709 11.6669C15.7605 11.6669 15.5614 11.5636 15.4737 11.3571C15.4197 11.2232 15.3927 11.014 15.3927 10.7294V7.43136H16.3138V10.5033C16.3138 10.6875 16.3171 10.7852 16.3239 10.7963C16.3441 10.9191 16.415 10.9805 16.5364 10.9805C16.7186 10.9805 16.9109 10.8605 17.1134 10.6205V7.43136H18.0344Z"
        fill="#333333" />
    <rect x="0.25" y="0.25" width="26.5" height="26.5" rx="13.25" stroke="#6F6F6F" stroke-width="0.5" />
</svg>