<svg id="Icons" style="enable-background:new 0 0 32 32" version="1.1" viewBox="0 0 32 32" xml:space="preserve"
	xmlns="http://www.w3.org/2000/svg">
	<style>
		.st0 {
			fill: none;
			stroke: #000;
			stroke-width: 2;
			stroke-linecap: round;
			stroke-linejoin: round;
			stroke-miterlimit: 10
		}
	</style>
	<path class="st0" d="m3 25 2.6-4.2c1.5-2.3 4-3.8 6.8-3.8H19v0c0 2.2-1.8 4-4 4h-2" />
	<path class="st0"
		d="M15 21h8l1.2-1.6c1.1-1.5 2.9-2.4 4.8-2.4h0l-2.7 4.8c-1.4 2.6-4.2 4.2-7.1 4.2h0c-4.7 0-9.3 1.4-13.2 4h0M5 2h22v12H5z" />
	<path class="st0" d="M27 6c-2.2 0-4-1.8-4-4M5 10c2.2 0 4 1.8 4 4" />
	<circle class="st0" cx="16" cy="8" r="3" />
	<path class="st0" d="M9 2c0 2.2-1.8 4-4 4M27 10c-2.2 0-4 1.8-4 4" />
</svg>