<svg width="70" height="70" fill="none" xmlns="http://www.w3.org/2000/svg">
    <path
        d="M29.093 43.824a6.292 6.292 0 0 0 4.447 1.843l-4.447-1.843Zm0 0a6.292 6.292 0 0 1-1.843-4.449m1.843 4.449-1.843-4.449m0 0c0-1.669.663-3.269 1.843-4.449m-1.843 4.449 1.843-4.449m0 0a6.292 6.292 0 0 1 4.449-1.843m-4.45 1.843 4.45-1.843m0 0c.947 0 1.876.219 2.716.633m-2.716-.633 2.716.633m0 0a8.216 8.216 0 0 0-2.256 5.658 8.22 8.22 0 0 0 2.256 5.658m0-11.316v11.316m0 0a6.175 6.175 0 0 1-2.718.635l2.718-.635ZM11.667 16.5h-1v37h48.666v-37H11.667Zm46.666 40.833H11.667A4.834 4.834 0 0 1 6.833 52.5v-35a4.833 4.833 0 0 1 4.834-4.833h46.666a4.833 4.833 0 0 1 4.834 4.833v35a4.833 4.833 0 0 1-4.834 4.833ZM45.208 45.667a6.292 6.292 0 1 1 0-12.584 6.292 6.292 0 0 1 0 12.584Z"
        stroke="#1778CD" stroke-width="2" />
</svg>