<svg width="30" height="30" fill="none" xmlns="http://www.w3.org/2000/svg">
    <path
        d="M15 2.188a4.063 4.063 0 0 1 4.056 3.832l.006.23h6.563a.937.937 0 0 1 .128 1.866l-.128.009h-.995L23.03 24.4a3.437 3.437 0 0 1-3.201 3.093l-.22.007H10.39A3.437 3.437 0 0 1 7 24.616L6.97 24.4 5.369 8.125h-.994a.937.937 0 0 1-.929-.81l-.009-.128a.937.937 0 0 1 .81-.928l.128-.009h6.563A4.062 4.062 0 0 1 15 2.187Zm7.746 5.937H7.253l1.583 16.09a1.563 1.563 0 0 0 1.396 1.402l.16.008h9.217c.75 0 1.386-.531 1.531-1.253l.025-.157 1.58-16.09h.001Zm-5.558 3.438a.938.938 0 0 1 .928.81l.009.127v8.75a.937.937 0 0 1-1.866.128l-.009-.128V12.5a.938.938 0 0 1 .938-.938Zm-4.375 0a.938.938 0 0 1 .928.81l.009.127v8.75a.937.937 0 0 1-1.866.128l-.009-.128V12.5a.938.938 0 0 1 .938-.938ZM15 4.063a2.187 2.187 0 0 0-2.18 2.007l-.008.18h4.376A2.188 2.188 0 0 0 15 4.062Z"
        fill="#000" />
</svg>