<?xml version="1.0" ?><svg data-name="Layer 3" id="Layer_3" viewBox="0 0 32 32" xmlns="http://www.w3.org/2000/svg">
    <defs>
        <style>
            .cls-1 {
                fill: none;
                stroke: #3c4044;
                stroke-linecap: round;
                stroke-linejoin: round;
            }
        </style>
    </defs>
    <title />
    <path class="cls-1" d="M22.94,9V22.6H13.28a2.42,2.42,0,0,0-4.83,0H6V9Z" />
    <path class="cls-1" d="M31,17.8v4.8H29.39a2.42,2.42,0,0,0-4.83,0H22.94V13h3.37Z" />
    <path class="cls-1" d="M31,17.8v4.8H29.39a2.42,2.42,0,0,0-4.83,0H22.94V17.8Z" />
    <ellipse class="cls-1" cx="10.86" cy="22.6" rx="2.42" ry="2.4" />
    <ellipse class="cls-1" cx="26.97" cy="22.6" rx="2.42" ry="2.4" />
    <line class="cls-1" x1="1" x2="3.61" y1="10.6" y2="10.6" />
    <line class="cls-1" x1="1" x2="3.61" y1="13.8" y2="13.8" />
    <line class="cls-1" x1="1" x2="3.61" y1="17" y2="17" />
</svg>