<svg width="30" height="30" fill="none" xmlns="http://www.w3.org/2000/svg">
    <path
        d="m20.593 6.76 2.647 2.646-2.647-2.646Zm1.702-2.331-7.159 7.158c-.37.37-.622.84-.725 1.353l-.661 3.31 3.31-.663a2.645 2.645 0 0 0 1.353-.723l7.158-7.16a2.316 2.316 0 0 0-3.276-3.275v0Z"
        stroke="#000" stroke-width="2.5" stroke-linecap="round" stroke-linejoin="round" />
    <path d="M23.75 18.75v3.75a2.5 2.5 0 0 1-2.5 2.5H7.5A2.5 2.5 0 0 1 5 22.5V8.75a2.5 2.5 0 0 1 2.5-2.5h3.75"
        stroke="#000" stroke-width="2.5" stroke-linecap="round" stroke-linejoin="round" />
</svg>