<svg width="26" height="27" fill="none" xmlns="http://www.w3.org/2000/svg">
    <rect x=".25" y=".25" width="25.5" height="26.5" rx="12.75" fill="#fff" />
    <path
        d="M18 6.421a.4.4 0 0 0-.133-.294.477.477 0 0 0-.322-.122h-2.272c-1.145-.052-2.265.313-3.117 1.015-.852.703-1.365 1.685-1.429 2.734v2.249H8.455a.476.476 0 0 0-.322.122.4.4 0 0 0-.133.294v2.166a.4.4 0 0 0 .133.295c.085.078.201.122.322.122h2.272v5.582a.4.4 0 0 0 .133.294c.086.078.201.122.322.122h2.727c.12 0 .236-.044.321-.122a.4.4 0 0 0 .134-.294v-5.582h2.381c.101.001.2-.028.28-.084a.417.417 0 0 0 .166-.224l.655-2.166a.384.384 0 0 0-.078-.361.448.448 0 0 0-.159-.12.488.488 0 0 0-.2-.044h-3.045v-2.25a.811.811 0 0 1 .296-.535.958.958 0 0 1 .613-.214h2.273c.12 0 .236-.044.32-.122A.4.4 0 0 0 18 8.587V6.421Z"
        fill="#202020" />
    <rect x=".25" y=".25" width="25.5" height="26.5" rx="12.75" stroke="#737373" stroke-width=".5" />
</svg>