<svg width="25" height="25" viewBox="0 0 25 25" fill="none" xmlns="http://www.w3.org/2000/svg">
    <g clip-path="url(#clip0_1_75)">
        <path
            d="M25 18.75C25 19.4867 24.7073 20.1933 24.1864 20.7142C23.6655 21.2351 22.9589 21.5278 22.2222 21.5278H2.77778C2.04107 21.5278 1.33453 21.2351 0.813592 20.7142C0.292658 20.1933 0 19.4867 0 18.75V6.25001C0 5.51329 0.292658 4.80676 0.813592 4.28582C1.33453 3.76489 2.04107 3.47223 2.77778 3.47223H22.2222C22.9589 3.47223 23.6655 3.76489 24.1864 4.28582C24.7073 4.80676 25 5.51329 25 6.25001V18.75Z"
            fill="#006A4D" />
        <path
            d="M11.1111 17.0139C13.7958 17.0139 15.9722 14.8375 15.9722 12.1528C15.9722 9.46805 13.7958 7.29166 11.1111 7.29166C8.42639 7.29166 6.25 9.46805 6.25 12.1528C6.25 14.8375 8.42639 17.0139 11.1111 17.0139Z"
            fill="#F42A41" />
    </g>
    <defs>
        <clipPath id="clip0_1_75">
            <rect width="25" height="25" fill="white" />
        </clipPath>
    </defs>
</svg>