<svg width="63" height="43" viewBox="0 0 63 43" fill="none" xmlns="http://www.w3.org/2000/svg">
    <path
        d="M26.9886 36.3782C26.7652 38.4365 25.3483 40.1018 23.817 40.1018C22.2831 40.1018 21.2235 38.4365 21.4445 36.3782C21.6653 34.3266 23.0874 32.661 24.616 32.661C26.1449 32.661 27.207 34.3266 26.9886 36.3782ZM24.8743 30.2628C22.3552 30.2628 20.0199 33.0008 19.6576 36.3782C19.2978 39.7555 21.0425 42.5 23.559 42.5C26.0779 42.5 28.4108 39.7555 28.7755 36.3782C29.1377 33.0008 27.3908 30.2628 24.8743 30.2628Z"
        fill="#636363" />
    <path
        d="M53.1859 36.3782C52.9649 38.4365 51.5454 40.1018 50.0139 40.1018C48.4829 40.1018 47.4208 38.4365 47.6442 36.3782C47.8626 34.3266 49.2845 32.661 50.8158 32.661C52.3468 32.661 53.4091 34.3266 53.1859 36.3782ZM51.0714 30.2628C48.5549 30.2628 46.2218 33.0008 45.8573 36.3782C45.4924 39.7555 47.2418 42.5 49.7537 42.5C52.2725 42.5 54.6103 39.7555 54.9701 36.3782C55.3348 33.0008 53.5852 30.2628 51.0714 30.2628Z"
        fill="#636363" />
    <path d="M0 29.0837H11.2099L11.7013 26.1861H1.03479L0 29.0837Z" fill="#636363" />
    <path d="M4.812 19.8776L3.77942 22.7821H12.1505L12.6344 19.8776H4.812Z" fill="#636363" />
    <path d="M13.6096 13.9556H8.82239L7.7876 16.8533H13.1158L13.6096 13.9556Z" fill="#636363" />
    <path
        d="M41.9585 0.000160217H22.0575C19.4219 0.000160217 16.8162 2.8378 16.2801 6.30181L12.6072 29.77C12.0662 33.2276 13.781 36.0652 16.4191 36.0652H18.5583C19.0371 31.9553 21.7944 28.7512 24.8717 28.7512C26.4129 28.7512 27.7877 29.5701 28.7407 31.0426C29.6217 32.4081 30.0313 34.1801 29.9271 36.0652H36.3174C38.9531 36.0652 41.5612 33.2276 42.0975 29.77L45.7629 6.30181C46.3114 2.8378 44.5915 0.000160217 41.9585 0.000160217Z"
        fill="#636363" />
    <path
        d="M60.5019 24.221C58.9806 23.8014 57.9606 21.7232 58.2261 19.5912C58.4965 17.4598 58.782 15.4479 58.782 15.4479C59.08 13.1162 57.8909 11.2179 56.1314 11.2179H49.0562C47.2991 11.2179 45.5865 13.1029 45.2492 15.4212L42.8519 31.855C42.5615 33.8669 43.3977 35.552 44.7727 35.9652C45.2888 31.9017 48.0188 28.7509 51.0714 28.7509C52.6123 28.7509 53.9898 29.5701 54.9426 31.0423C55.8189 32.408 56.2308 34.1801 56.1215 36.0717H58.4445C60.204 36.0717 61.9164 34.173 62.2564 31.855L62.6409 29.1969C62.9785 26.8788 62.0155 24.6407 60.5019 24.221Z"
        fill="#636363" />
    <path
        d="M20.0201 4.46299H24.5144L24.1546 6.47491H21.4072L20.9608 8.82635H23.7328L23.3802 10.8247H20.6058L19.6875 15.8209H17.9452L20.0201 4.46299Z"
        fill="white" />
    <path
        d="M26.6314 8.99936C27.5643 8.99936 28.1824 8.87988 28.4828 8.65334C28.7805 8.40669 28.9493 8.06009 28.9841 7.58749L28.8598 6.92799L28.3957 6.53465C28.1875 6.46811 27.7556 6.42848 27.1029 6.42848L26.6314 8.99936ZM25.7279 4.46299H27.3237C28.314 4.46299 28.9989 4.56945 29.3909 4.77647C29.8699 5.04264 30.2249 5.40256 30.4481 5.86864C30.6665 6.33473 30.756 6.88777 30.7064 7.52716C30.6517 8.31354 30.4109 8.99315 29.9964 9.5524C29.5746 10.1187 28.974 10.5053 28.1875 10.7315L29.8278 15.8209H28.041L26.4328 10.8649H26.2889L25.3806 15.8209H23.6482L25.7279 4.46299Z"
        fill="white" />
    <path
        d="M32.3145 4.46299H37.2679L36.9131 6.47491H33.7017L33.2625 8.82635H36.4962L36.1436 10.8247H32.8976L32.3416 13.8356H35.6077L35.2527 15.8209H30.2423L32.3145 4.46299Z"
        fill="white" />
    <path
        d="M38.345 4.46299H43.2935L42.9387 6.47491H39.7249L39.2879 8.82635H42.5218L42.1693 10.8247H38.9232L38.3675 13.8356H41.6307L41.2786 15.8209H36.2677L38.345 4.46299Z"
        fill="white" />
    <path
        d="M18.526 18.0459L17.8907 21.5427H18.1586C18.578 21.5427 18.8808 21.4963 19.0694 21.4099C19.3375 21.2964 19.5634 21.0834 19.7445 20.7901C19.9206 20.4973 20.0248 20.1309 20.0597 19.6979C20.0846 19.338 20.0522 19.0381 19.9578 18.7985L19.5286 18.2458C19.3301 18.1124 19.067 18.0459 18.7344 18.0459H18.526ZM17.8757 17.0998H18.5681C19.2159 17.0998 19.6899 17.193 19.9927 17.3796C20.2954 17.5727 20.5312 17.8726 20.7 18.2724C20.8686 18.6785 20.9331 19.1449 20.8985 19.6778C20.8562 20.2172 20.7148 20.7167 20.4741 21.1766C20.2284 21.6294 19.9431 21.9627 19.6031 22.1691C19.2679 22.3758 18.8162 22.4823 18.2505 22.4823H16.8905L17.8757 17.0998Z"
        fill="white" />
    <path
        d="M21.7696 17.0998H24.1149L23.9437 18.0524H22.4247L22.2189 19.1647H23.7526L23.5838 20.1173H22.0427L21.782 21.5427H23.3306L23.1618 22.4823H20.7844L21.7696 17.0998Z"
        fill="white" />
    <path d="M24.6807 17.0998H25.5046L24.6906 21.5631H26.0407L25.8843 22.4823H23.6981L24.6807 17.0998Z" fill="white" />
    <path d="M27.0085 17.0998H27.8126L26.8175 22.4823H26.0258L27.0085 17.0998Z" fill="white" />
    <path d="M27.9515 17.0998H28.7481L29.247 20.99L31.2174 17.0998H32.096L29.3786 22.4823H28.6415L27.9515 17.0998Z"
        fill="white" />
    <path
        d="M32.3345 17.0998H34.6821L34.5109 18.0524H32.9896L32.7862 19.1647H34.3126L34.1462 20.1173H32.6099L32.3492 21.5427H33.8954L33.7293 22.4823H31.3492L32.3345 17.0998Z"
        fill="white" />
    <path
        d="M35.7144 19.2513C36.1611 19.2513 36.4537 19.1913 36.5927 19.0851L36.8287 18.5853L36.7714 18.2653L36.5507 18.0858C36.4537 18.0521 36.2503 18.0388 35.9378 18.0388L35.7144 19.2513ZM35.2849 17.0998H36.0469C36.511 17.0998 36.8387 17.1598 37.0244 17.2465L37.5259 17.7658L37.65 18.5519C37.62 18.9248 37.5035 19.2448 37.3124 19.5113C37.109 19.7775 36.8261 19.9641 36.4537 20.0708L37.2333 22.4823H36.3843L35.6199 20.1374H35.5555L35.1234 22.4823H34.3024L35.2849 17.0998Z"
        fill="white" />
    <path
        d="M37.8535 17.0998H38.6876L39.2087 19.2513L40.6033 17.0998H41.5464L39.4467 20.3305L39.06 22.4823H38.2383L38.638 20.3305L37.8535 17.0998Z"
        fill="white" />
    <path
        d="M21.236 24.4142L21.2507 24.2075H22.1293L22.1145 24.4142H21.7571L21.633 26.3528H21.4667L21.5958 24.4142H21.236Z"
        fill="white" />
    <path
        d="M22.8144 25.0603L23.0006 24.8273L23.0528 24.6806L23.0079 24.554L22.8666 24.4874L22.7251 24.554L22.663 24.6874L22.678 24.7873L22.8144 25.0603ZM22.7723 25.3401L22.4843 25.6799L22.4074 25.8928L22.4669 26.1193L22.6531 26.206L22.8243 26.1596L23.1321 25.9061L22.9039 25.5598L22.7723 25.3401ZM23.4796 25.5598L23.5788 25.7133L23.3653 25.9327L23.5169 26.1528L23.6482 26.3527H23.4298L23.2364 26.0596L22.8864 26.3394L22.6258 26.4127L22.3356 26.266L22.2461 25.9132L22.3404 25.5867L22.678 25.1801L22.5315 24.8672L22.5068 24.6806L22.6158 24.4141L22.8864 24.2878L23.0676 24.3408L23.1841 24.4806L23.2165 24.6874L23.1469 24.9068L22.9039 25.22L23.122 25.5598L23.2661 25.7798L23.4796 25.5598Z"
        fill="white" />
    <path
        d="M25.5095 24.6071L25.3755 24.7339L25.1422 24.4607L24.8295 24.3672L24.4672 24.4876L24.1894 24.8271L24.0726 25.287L24.224 25.9462L24.7178 26.2058L25.3011 25.853L25.4203 25.9796L25.1025 26.2993L24.698 26.4058C24.4126 26.4058 24.1993 26.286 24.0552 26.0325L23.9014 25.2666C23.9212 24.9537 24.0206 24.6872 24.1993 24.4743C24.3804 24.261 24.5937 24.1543 24.8394 24.1543L25.2389 24.2744L25.5095 24.6071Z"
        fill="white" />
    <path
        d="M27.078 24.6672L26.7504 25.4468H27.3013L27.078 24.6672ZM27.1276 24.2074L27.7332 26.3527H27.5595L27.3559 25.6467H26.666L26.3683 26.3527H26.1896L27.088 24.2074H27.1276Z"
        fill="white" />
    <path
        d="M28.6614 24.9202L28.3139 25.1137C27.562 26.7657 29.7508 26.3262 28.8896 25.0069L28.6614 24.9202ZM28.0607 24.767H28.2147L28.1949 25.0604L28.4181 24.807L28.6863 24.7274L29.0981 24.9741L29.242 25.5599L29.0238 26.1529L28.582 26.4057L28.3238 26.3191L28.1303 26.086L28.0708 26.939H27.917L28.0607 24.767Z"
        fill="white" />
    <path
        d="M30.1801 24.9202L29.8376 25.1137C29.0708 26.7725 31.2794 26.3191 30.4084 25.0069L30.1801 24.9202ZM29.5871 24.767H29.7334L29.7184 25.0604L29.9419 24.807L30.2074 24.7274L30.6219 24.9741L30.7633 25.5599L30.545 26.1529L30.1032 26.4057L29.8475 26.3191L29.649 26.086L29.5919 26.939H29.4406L29.5871 24.767Z"
        fill="white" />
    <path d="M31.1183 24.1542H31.2745L31.1231 26.3528H30.9744L31.1183 24.1542Z" fill="white" />
    <path
        d="M31.6395 24.1144L31.7288 24.1611L31.7587 24.2806L31.714 24.4009L31.6197 24.4474L31.5353 24.4009L31.5055 24.2806L31.5501 24.1611L31.6395 24.1144ZM31.5203 24.7671H31.6741L31.5701 26.3525H31.4211L31.5203 24.7671Z"
        fill="white" />
    <path
        d="M32.9448 25.4002L32.8727 25.1402L32.7313 24.9802L32.5354 24.9202L32.2275 25.0737L32.0662 25.4002H32.9448ZM32.9201 25.8263L33.0391 25.9195L32.8778 26.1859L32.6793 26.3394L32.4411 26.3992L32.0092 26.1395L31.8827 25.5664L32.0563 25.0269L32.5453 24.7273L33.0045 25.0337L33.1059 25.5732H32.0391L32.1432 26.0327L32.4411 26.2061L32.6222 26.1661L32.7736 26.0529L32.9201 25.8263Z"
        fill="white" />
    <path
        d="M34.0218 24.9404L33.9101 25.0734L33.6867 24.9203L33.5527 24.9871L33.4908 25.1468L33.5256 25.287L33.6968 25.4532L33.9101 25.6862L33.9573 25.9264L33.8334 26.2659L33.5677 26.4058L33.3742 26.3392L33.2301 26.1727L33.3392 26.0263L33.5725 26.1996L33.7338 26.1263L33.8083 25.9397L33.7812 25.7797L33.6001 25.6132L33.3965 25.4002L33.3544 25.1536L33.4683 24.8472L33.7092 24.7271L34.0218 24.9404Z"
        fill="white" />
    <path
        d="M34.5779 24.1543H34.7169L34.657 24.5875L34.9402 24.3276L35.0047 24.4938L34.692 24.6742L34.9798 24.8537L34.8954 25.0202L34.6398 24.7671L34.6449 25.2003H34.5034L34.568 24.7671L34.2848 25.0202L34.2229 24.8537L34.5404 24.6742L34.2502 24.4938L34.3269 24.3276L34.5825 24.5875L34.5779 24.1543Z"
        fill="white" />
</svg>