<svg width="70" height="70" viewBox="0 0 70 70" fill="none" xmlns="http://www.w3.org/2000/svg">
    <g clip-path="url(#clip0_2_165)">
        <path
            d="M41.3424 22.7773V22.791C41.3424 23.9358 40.4333 24.9395 39.234 24.9395H34.9076H34.9044C34.2933 24.9375 33.6915 24.8035 33.1326 24.5484L33.1206 24.543L33.1207 24.5429C32.7953 24.3892 32.5441 24.4658 32.4079 24.6065L41.3424 22.7773ZM41.3424 22.7773L41.342 22.7637M41.3424 22.7773L41.342 22.7637M41.342 22.7637C41.3296 22.3126 41.1855 21.8662 40.9154 21.495C40.6476 21.127 40.2638 20.8455 39.8086 20.7212L33.228 18.7705C33.2276 18.7704 33.2273 18.7703 33.2269 18.7702C30.6443 17.9969 28.6033 15.796 28.2745 13.0866C27.8119 9.24614 30.4703 6.00944 33.9069 5.58625L34.7847 5.47817V4.59375V2.1875C34.7847 1.50291 35.3205 1 35.8957 1H38.0066C38.5817 1 39.1175 1.50291 39.1175 2.1875V4.61016V5.50082L40.0023 5.60349C41.3212 5.75655 42.6013 6.23414 43.752 7.01047C43.7942 7.0391 43.8388 7.08221 43.8783 7.14266C43.9179 7.20334 43.95 7.27795 43.9684 7.36309C43.9869 7.44824 43.9902 7.53797 43.9779 7.62574C43.9656 7.7135 43.9385 7.79312 43.9019 7.86014L43.8991 7.86528C43.8723 7.91494 43.8414 7.95541 43.8097 7.98705L43.8028 7.9939L43.7961 8.00088L41.4873 10.3932L41.342 22.7637ZM32.5477 12.2227V12.209C32.5477 11.0642 33.4568 10.0605 34.6561 10.0605H38.9825H38.9842C39.5974 10.0616 40.2015 10.1956 40.7624 10.4516L40.775 10.4573L40.775 10.4574C41.0985 10.6105 41.3508 10.5343 41.487 10.3935L32.5477 12.2227ZM32.5477 12.2227L32.5481 12.2363M32.5477 12.2227L32.5481 12.2363M32.5481 12.2363C32.5605 12.6874 32.7046 13.1338 32.9747 13.505C33.2425 13.873 33.6263 14.1545 34.0815 14.2788L40.6625 16.2296M32.5481 12.2363L40.6625 16.2296M68.0669 45.6442C68.3516 45.9501 68.585 46.3238 68.7478 46.7465C68.9251 47.2069 69.0123 47.7093 69.0004 48.2176C68.9886 48.7259 68.8782 49.2216 68.6805 49.6692C68.4828 50.1167 68.2048 50.5008 67.8728 50.7996L67.8727 50.7997L49.4945 67.3422C48.288 68.4267 46.8089 69.0013 45.3028 69H45.3019H1.94444C1.73452 69 1.50561 68.9072 1.31692 68.6949C1.12483 68.4788 1 68.163 1 67.8125V54.6875C1 54.337 1.12483 54.0212 1.31692 53.8051C1.50561 53.5928 1.73452 53.5 1.94444 53.5H8.67708H9.06471L9.35107 53.2387L15.0021 48.0831L15.0023 48.0829C17.375 45.9173 20.3172 44.751 23.3333 44.75C23.3334 44.75 23.3335 44.75 23.3336 44.75H42.7778C43.5025 44.75 44.2252 45.0725 44.7783 45.6936C45.3348 46.3185 45.6651 47.189 45.6667 48.1185L45.6667 48.1202C45.6674 48.3184 45.6525 48.516 45.6225 48.7107L45.6224 48.7107L45.6209 48.7209C45.3814 50.3865 43.9936 51.5 42.57 51.5H33.0556C32.2341 51.5 31.4738 51.8681 30.9332 52.4763C30.396 53.0807 30.1111 53.8777 30.1111 54.6875C30.1111 55.4973 30.396 56.2943 30.9332 56.8987C31.4738 57.5069 32.2341 57.875 33.0556 57.875L47.4255 57.875C47.4259 57.875 47.4264 57.875 47.4268 57.875C49.4551 57.881 51.4064 57.1048 52.9586 55.7043L68.0669 45.6442ZM68.0669 45.6442L67.9819 45.5574C66.9774 44.5327 65.3589 44.5383 64.1908 45.598L64.1878 45.6008L52.9598 55.7033L68.0669 45.6442ZM40.6625 16.2296C43.2486 17.0023 45.2838 19.202 45.6143 21.9127L40.6625 16.2296ZM30.0989 26.9991L32.4077 24.6068L45.6143 21.9128C46.0774 25.7543 43.4241 28.9905 39.9833 29.4137L39.1054 29.5217V30.4062V32.8125C39.1054 33.4963 38.5691 34 37.9932 34H35.8823C35.308 34 34.7714 33.4967 34.7714 32.8125V30.3926V29.5019L33.8866 29.3992C32.5677 29.2462 31.2875 28.7683 30.137 27.9915L30.1365 27.9912C30.0944 27.9628 30.05 27.92 30.0105 27.8599C29.9709 27.7997 29.9388 27.7255 29.9202 27.6407C29.9016 27.556 29.898 27.4666 29.91 27.379C29.9219 27.2923 29.9482 27.2135 29.984 27.1468C30.013 27.0943 30.0464 27.0512 30.081 27.0172L30.0901 27.0083L30.0989 26.9991ZM14.3281 47.3443L8.67708 52.5H1.94444C1.42875 52.5 0.934169 52.7305 0.569515 53.1407C0.204861 53.5509 0 54.1073 0 54.6875V67.8125C0 68.3927 0.204861 68.9491 0.569515 69.3593C0.934169 69.7695 1.42875 70 1.94444 70H45.3019C47.0685 70.0016 48.7829 69.3265 50.163 68.0859L14.3281 47.3443Z"
            stroke="#1778CD" stroke-width="2" />
    </g>
    <defs>
        <clipPath id="clip0_2_165">
            <rect width="70" height="70" fill="white" />
        </clipPath>
    </defs>
</svg>