<svg width="20" height="20" xmlns="http://www.w3.org/2000/svg">
    <g clip-path="url(#a)">
        <path
            d="m10 3.435-.896-.921C7 .35 3.142 1.098 1.75 3.816c-.654 1.28-.801 3.125.392 5.482 1.15 2.268 3.543 4.986 7.858 7.946 4.315-2.96 6.706-5.678 7.857-7.946 1.194-2.358 1.048-4.203.393-5.482C16.857 1.098 13 .35 10.896 2.513L10 3.435Zm0 15.315C-9.166 6.085 4.099-3.8 9.78 1.43c.075.069.149.14.22.214.07-.074.144-.145.22-.213C15.9-3.802 29.166 6.084 10 18.75Z"
            fill="#E96115" />
    </g>
    <defs>
        <clipPath id="a">
            <path fill="#fff" d="M0 0h20v20H0z" />
        </clipPath>
    </defs>
</svg>