<svg width="61" height="57" viewBox="0 0 61 57" fill="none" xmlns="http://www.w3.org/2000/svg">
    <g clip-path="url(#clip0_96_106)">
        <path fill-rule="evenodd" clip-rule="evenodd"
            d="M55.3847 3.41837C55.7943 3.37213 56.2123 3.43322 56.5714 3.59181C56.8912 3.70084 57.1632 3.87858 57.3548 4.10368C57.5464 4.32879 57.6493 4.59166 57.6513 4.86071L57.77 17.714H57.7166H57.6632H57.6335H57.6039H57.5742H56.8444H54.4828H54.4294H54.3759H54.3226H54.2691L54.1742 7.43501L42.9002 12.9123V31.9867C41.9674 32.4897 40.9943 32.9471 39.9868 33.3561L39.2688 32.5253V13.0994L24.5652 11.6707L24.0252 23.7754L18.1925 20.7128L12.3537 23.2505L13.5405 10.589L3.63123 9.61678V35.5606L27.0692 37.5644L26.3631 40.303L1.72653 38.208C1.26056 38.1904 0.821282 38.0355 0.49979 37.7755C0.178299 37.5154 -0.000732655 37.1701 -0.000171825 36.8113V8.05577C-0.00539492 7.78026 0.0947425 7.50965 0.287796 7.27757C0.48085 7.04548 0.758308 6.86215 1.08569 6.75036L20.6431 0.113765C20.9459 0.00858772 21.2803 -0.0308724 21.6102 -0.000344131L55.3847 3.41837ZM28.8968 52.1567L33.7565 33.1644L38.6814 38.8744C49.2908 35.6017 55.2482 30.1975 56.1323 21.8812C64.8489 33.6025 59.556 44.1097 48.5135 50.2625L53.5393 56.0866L28.8968 52.1567ZM38.3372 4.50925L27.6567 9.16947L40.6039 10.4384L50.347 5.71881L38.3372 4.50925ZM16.4242 8.06489L26.7844 3.34077L21.6458 2.825L8.4553 7.30264L16.4242 8.08315V8.06489Z"
            fill="#636363" />
    </g>
    <defs>
        <clipPath id="clip0_96_106">
            <rect width="60.4878" height="56.087" fill="white" />
        </clipPath>
    </defs>
</svg>