<?xml version="1.0" ?><svg id="Capa_1" style="enable-background:new 0 0 100 100;" version="1.1" viewBox="0 0 100 100"
    xml:space="preserve" xmlns="http://www.w3.org/2000/svg" xmlns:xlink="http://www.w3.org/1999/xlink">
    <path
        d="M50,87.04c-18.47,0-33.5-15.03-33.5-33.5c0-0.55,0.45-1,1-1s1,0.45,1,1c0,17.37,14.13,31.5,31.5,31.5s31.5-14.13,31.5-31.5  S67.37,22.04,50,22.04c-0.55,0-1-0.45-1-1s0.45-1,1-1c18.47,0,33.5,15.03,33.5,33.5S68.47,87.04,50,87.04z" />
    <path
        d="M57.08,29.11c-0.26,0-0.51-0.1-0.71-0.29l-7.07-7.07c-0.19-0.2-0.3-0.45-0.3-0.71s0.11-0.52,0.29-0.71l7.07-7.07  c0.39-0.39,1.02-0.39,1.41,0s0.39,1.02,0,1.41l-6.36,6.36l6.36,6.36c0.39,0.39,0.39,1.02,0,1.41  C57.59,29.01,57.33,29.11,57.08,29.11z" />
</svg>