<svg width="53" height="48" viewBox="0 0 53 48" fill="none" xmlns="http://www.w3.org/2000/svg">
    <g clip-path="url(#clip0_96_99)">
        <path fill-rule="evenodd" clip-rule="evenodd"
            d="M37.2436 20.9819C38.6206 20.9819 39.8442 21.7091 40.6074 22.8279C41.3705 21.7045 42.5941 20.9819 43.9712 20.9819C46.2862 20.9819 48.162 23.033 48.162 25.5643C48.162 28.0955 46.2862 30.1466 43.9712 30.1466C42.5941 30.1466 41.3705 29.4194 40.6074 28.3006C39.8442 29.4241 38.6206 30.1466 37.2436 30.1466C34.9286 30.1466 33.0527 28.0955 33.0527 25.5643C33.0527 23.033 34.9286 20.9819 37.2436 20.9819ZM17.0097 17.2153C21.6525 20.4318 25.8476 21.9562 29.4459 21.5972C29.6761 26.697 29.1901 31.0323 28.0731 34.6404H49.8162C50.1488 34.6404 50.4515 34.4912 50.6731 34.2488C50.8948 34.0064 51.0313 33.6755 51.0313 33.3119V15.8448H1.97288V33.3119C1.97288 33.6755 2.10931 34.0064 2.331 34.2488C2.55269 34.4912 2.85539 34.6404 3.18793 34.6404H6.12538C5.02544 31.0323 4.49678 26.6458 4.62042 21.3828C8.8454 21.6299 12.9936 20.6276 17.0097 17.2153ZM27.4336 36.4631C25.3616 41.6888 21.7975 45.1896 17.0566 47.1429C12.401 45.2829 8.84966 41.8613 6.7521 36.4631H3.18793C2.39495 36.4631 1.67444 36.1088 1.15432 35.5401C0.629923 34.9714 0.305908 34.1836 0.305908 33.3165V3.15125C0.305908 2.28419 0.629923 1.49638 1.15005 0.922999C1.67444 0.354282 2.39495 0 3.18793 0H49.8162C50.6092 0 51.3297 0.354282 51.8498 0.922999C52.37 1.49172 52.694 2.28419 52.694 3.14659V33.3072C52.694 34.1743 52.37 34.9621 51.8498 35.5308C51.3297 36.0995 50.6092 36.4584 49.8162 36.4584H27.4336V36.4631ZM17.0182 20.003C20.8766 22.6787 24.364 23.942 27.3526 23.6437C27.5573 28.1375 27.0883 31.8761 26.0352 34.9388L26.0054 35.0227C25.9713 35.1159 25.9414 35.2091 25.9073 35.2977L25.869 35.4003C25.8391 35.4842 25.805 35.5681 25.7752 35.652L25.7368 35.7499C25.7027 35.8338 25.6686 35.9177 25.6345 36.0016L25.5876 36.1182C25.5577 36.1881 25.5279 36.258 25.4981 36.3279L25.4341 36.4678C23.6819 40.4208 20.8126 43.0686 17.0524 44.6163C13.3518 43.1385 10.4911 40.556 8.72176 36.4678L8.70897 36.4398L8.70471 36.4072L8.69192 36.3792C8.66208 36.3046 8.63223 36.2347 8.60239 36.1601L8.5896 36.1321L8.57681 36.1042L8.56402 36.0762L8.55123 36.0482L8.53844 36.0203C8.5086 35.9457 8.47875 35.8711 8.44891 35.7965L8.43612 35.7685L8.42333 35.7406L8.41054 35.7126C8.36791 35.6007 8.32527 35.4842 8.28264 35.3723L8.27411 35.3443L8.26559 35.3164C8.23574 35.2278 8.20164 35.1439 8.17179 35.0553L8.16327 35.0273L8.15474 34.9994L8.14621 34.9714L8.13769 34.9434C8.10784 34.8549 8.078 34.7663 8.04815 34.6777L8.03963 34.6497C7.07611 31.6477 6.60714 27.9603 6.71373 23.4712C10.2353 23.667 13.68 22.8372 17.0182 20.003ZM1.97288 6.7873H51.027V3.15125C51.027 2.78764 50.8906 2.45667 50.6689 2.21426C50.4472 1.97186 50.1445 1.82269 49.8119 1.82269H3.18793C2.85539 1.82269 2.55269 1.97186 2.331 2.21426C2.10931 2.45667 1.97288 2.78764 1.97288 3.15125V6.7873Z"
            fill="#636363" />
        <path
            d="M10.8022 31.3913L13.0064 31.3587L13.1727 31.4053C13.6161 31.685 14.0381 32.0066 14.4304 32.3702C14.7117 32.6313 14.9846 32.9157 15.2404 33.228C16.0334 31.8342 16.8733 30.5569 17.7643 29.3822C18.7406 28.0956 19.7766 26.9255 20.8637 25.858L21.0769 25.7694H23.4857L22.9997 26.3568C21.5075 28.1701 20.156 30.0394 18.9324 31.974C17.7089 33.9086 16.6175 35.9037 15.6454 37.9549L15.3427 38.5935L15.0656 37.9455C14.554 36.7428 13.9401 35.638 13.2068 34.6498C12.4735 33.6615 11.6208 32.7851 10.6274 32.0393L10.8022 31.3913Z"
            fill="#69C229" />
    </g>
    <defs>
        <clipPath id="clip0_96_99">
            <rect width="52.3881" height="47.1429" fill="white" transform="translate(0.305908)" />
        </clipPath>
    </defs>
</svg>