<svg width="20" height="20" viewBox="0 0 20 20" fill="none" xmlns="http://www.w3.org/2000/svg">
    <path
        d="M13.4375 1.5625V2.44125C12.9251 2.52925 12.4385 2.72944 12.0125 3.0275L11.3675 2.42125L10.5081 3.34L11.1331 3.92563C10.8472 4.34231 10.6539 4.81543 10.5663 5.31313H9.68752V6.56313H10.5663C10.6575 7.08188 10.8625 7.55438 11.1525 7.96938L10.4881 8.61312L11.3881 9.51312L12.0319 8.84812C12.4469 9.13812 12.9194 9.34313 13.4381 9.43438V10.3125H14.6881V9.43375C15.1858 9.34631 15.6589 9.15322 16.0756 8.8675L16.6606 9.4925L17.5794 8.6325L16.9731 7.98875C17.2669 7.57 17.4669 7.08563 17.5594 6.5625H18.4375V5.3125H17.5588C17.4688 4.80644 17.2687 4.32635 16.9725 3.90625L17.5588 3.32L16.6794 2.44125L16.0938 3.0275C15.6737 2.73135 15.1936 2.53121 14.6875 2.44125V1.5625H13.4375ZM14.0625 3.63313C14.3657 3.63113 14.6663 3.68937 14.9468 3.80447C15.2273 3.91956 15.4822 4.08921 15.6966 4.30358C15.9111 4.51795 16.0808 4.77277 16.1959 5.05325C16.3111 5.33374 16.3694 5.6343 16.3675 5.9375C16.3675 7.22188 15.3469 8.2425 14.0625 8.2425C12.7781 8.2425 11.7575 7.22188 11.7575 5.9375C11.7575 4.65313 12.7781 3.6325 14.0625 3.6325V3.63313ZM5.95627 7.32375L4.80502 7.7925L5.25377 8.92375C4.65641 9.28123 4.15391 9.77729 3.78877 10.37L2.67627 9.92L2.20752 11.0731L3.32002 11.5219C3.23222 11.86 3.18646 12.2076 3.18377 12.5569C3.18377 12.9131 3.23689 13.2606 3.32002 13.5919L2.20752 14.0419L2.67627 15.1937L3.78877 14.7437C4.15058 15.3442 4.65346 15.8473 5.25377 16.2094L4.80377 17.3219L5.95689 17.7906L6.4069 16.6781C6.74494 16.7662 7.09259 16.8119 7.4419 16.8144C7.79815 16.8144 8.1469 16.7612 8.4769 16.6781L8.92689 17.7906L10.0788 17.3219L9.62877 16.2094C10.2219 15.8448 10.7181 15.3421 11.075 14.7444L12.2063 15.1931L12.675 14.0413L11.5438 13.5913C11.625 13.26 11.68 12.9119 11.68 12.5562C11.68 12.2 11.6256 11.8513 11.5425 11.5206L12.6756 11.0719L12.2069 9.91875L11.0756 10.3687C10.7166 9.77756 10.2206 9.2815 9.6294 8.9225L10.0794 7.79125L8.92627 7.3225L8.47814 8.45375C8.13975 8.36651 7.79197 8.32096 7.44252 8.31812C7.08627 8.31813 6.73877 8.37188 6.40752 8.45438L5.95752 7.32312L5.95627 7.32375ZM7.44127 9.56875C9.10565 9.56875 10.4288 10.8937 10.4288 12.5575C10.43 14.2219 9.10565 15.565 7.44127 15.565C7.04618 15.5655 6.65488 15.488 6.28977 15.3371C5.92466 15.1861 5.59292 14.9646 5.31355 14.6852C5.03418 14.4059 4.81266 14.0741 4.6617 13.709C4.51073 13.3439 4.43328 12.9526 4.43377 12.5575C4.43377 10.8931 5.77752 9.56875 7.44127 9.56875Z"
        fill="black" />
</svg>