<svg width="83" height="15" viewBox="0 0 83 15" fill="none" xmlns="http://www.w3.org/2000/svg">
    <g clipPath="url(#clip0_7_93)">
        <path
            d="M73.0194 4.79906L75.0669 0.7425C75.1062 0.660894 75.1677 0.591969 75.2443 0.543572C75.3208 0.495174 75.4095 0.46925 75.5 0.46875C75.6716 0.46875 75.8432 0.559688 75.936 0.7425L77.9835 4.79906L82.5754 5.45156C82.6898 5.46956 82.7946 5.52648 82.8719 5.61273C82.9493 5.69897 82.9946 5.80927 83 5.925C83.0066 6.00205 82.9957 6.07958 82.9681 6.15182C82.9405 6.22405 82.8969 6.28913 82.8407 6.34219L79.5379 9.48844L80.316 13.9228C80.3891 14.3381 79.9785 14.6634 79.6166 14.4778L75.5 12.3628L71.3854 14.4778C71.3423 14.5002 71.2962 14.516 71.2485 14.5247C70.9279 14.5809 70.6222 14.2866 70.686 13.9228L71.4641 9.48844L68.1622 6.34219C68.1109 6.29362 68.0701 6.23503 68.0424 6.17003C68.0146 6.10504 68.0005 6.03504 68.001 5.96438C68.001 5.86447 68.0286 5.76651 68.0807 5.68125C68.1176 5.61944 68.168 5.56671 68.228 5.52696C68.288 5.4872 68.3562 5.46144 68.4275 5.45156L73.0194 4.79906ZM75.5 11.2753C75.5757 11.275 75.6504 11.293 75.7175 11.3278L79.1732 13.1034L78.5225 9.39375C78.5072 9.30843 78.513 9.22065 78.5395 9.1381C78.566 9.05556 78.6123 8.98077 78.6744 8.92031L81.3997 6.32344L77.601 5.78344C77.5223 5.77156 77.4477 5.74079 77.3836 5.69377C77.3194 5.64674 77.2676 5.58487 77.2325 5.51344L75.501 2.08406L75.5 2.08688V11.2744V11.2753Z"
            fill="#E96115" />
    </g>
    <g clipPath="url(#clip1_7_93)">
        <path
            d="M3.38621 14.4778C3.02433 14.6634 2.61371 14.3381 2.68683 13.9228L3.46496 9.48842L0.162146 6.34217C-0.146292 6.04779 0.0140208 5.50967 0.427458 5.45154L5.01933 4.79904L7.06683 0.74248C7.25152 0.376855 7.75121 0.376855 7.9359 0.74248L9.9834 4.79904L14.5753 5.45154C14.9887 5.50967 15.149 6.04779 14.8396 6.34217L11.5378 9.48842L12.3159 13.9228C12.389 14.3381 11.9784 14.6634 11.6165 14.4778L7.49996 12.3628L3.38527 14.4778H3.38621Z"
            fill="#E96115" />
    </g>
    <g clipPath="url(#clip2_7_93)">
        <path
            d="M20.385 14.4778C20.0231 14.6634 19.6125 14.3381 19.6856 13.9228L20.4637 9.48842L17.1609 6.34217C16.8525 6.04779 17.0128 5.50967 17.4262 5.45154L22.0181 4.79904L24.0656 0.74248C24.2503 0.376855 24.75 0.376855 24.9347 0.74248L26.9822 4.79904L31.574 5.45154C31.9875 5.50967 32.1478 6.04779 31.8384 6.34217L28.5365 9.48842L29.3147 13.9228C29.3878 14.3381 28.9772 14.6634 28.6153 14.4778L24.4987 12.3628L20.384 14.4778H20.385Z"
            fill="#E96115" />
    </g>
    <g clipPath="url(#clip3_7_93)">
        <path
            d="M37.3862 14.4778C37.0243 14.6634 36.6137 14.3381 36.6868 13.9228L37.465 9.48842L34.1621 6.34217C33.8537 6.04779 34.014 5.50967 34.4275 5.45154L39.0193 4.79904L41.0668 0.74248C41.2515 0.376855 41.7512 0.376855 41.9359 0.74248L43.9834 4.79904L48.5753 5.45154C48.9887 5.50967 49.149 6.04779 48.8396 6.34217L45.5378 9.48842L46.3159 13.9228C46.389 14.3381 45.9784 14.6634 45.6165 14.4778L41.5 12.3628L37.3853 14.4778H37.3862Z"
            fill="#E96115" />
    </g>
    <g clipPath="url(#clip4_7_93)">
        <path
            d="M54.3862 14.4778C54.0243 14.6634 53.6137 14.3381 53.6868 13.9228L54.465 9.48842L51.1621 6.34217C50.8537 6.04779 51.014 5.50967 51.4275 5.45154L56.0193 4.79904L58.0668 0.74248C58.2515 0.376855 58.7512 0.376855 58.9359 0.74248L60.9834 4.79904L65.5753 5.45154C65.9887 5.50967 66.149 6.04779 65.8396 6.34217L62.5378 9.48842L63.3159 13.9228C63.389 14.3381 62.9784 14.6634 62.6165 14.4778L58.5 12.3628L54.3853 14.4778H54.3862Z"
            fill="#E96115" />
    </g>
    <defs>
        <clipPath id="clip0_7_93">
            <rect width="15" height="15" fill="white" transform="translate(68)" />
        </clipPath>
        <clipPath id="clip1_7_93">
            <rect width="15" height="15" fill="white" />
        </clipPath>
        <clipPath id="clip2_7_93">
            <rect width="15" height="15" fill="white" transform="translate(17)" />
        </clipPath>
        <clipPath id="clip3_7_93">
            <rect width="15" height="15" fill="white" transform="translate(34)" />
        </clipPath>
        <clipPath id="clip4_7_93">
            <rect width="15" height="15" fill="white" transform="translate(51)" />
        </clipPath>
    </defs>
</svg>