<svg width="70" height="70" viewBox="0 0 70 70" fill="none" xmlns="http://www.w3.org/2000/svg">
    <path
        d="M10.9452 31.524L10.7811 32.6662H11.935H14.5834C15.0917 32.6662 15.5792 32.8682 15.9387 33.2276C16.2981 33.5871 16.5 34.0746 16.5 34.5829V49.5833C16.5 50.0916 16.2981 50.5792 15.9387 50.9386C15.5792 51.298 15.0917 51.5 14.5834 51.5H11.6667C8.9308 51.5 6.83337 49.4496 6.83337 47.0837V35C6.83337 19.4698 19.4698 6.83331 35 6.83331C50.5303 6.83331 63.1667 19.4698 63.1667 35V47.0837C63.1667 49.4496 61.0693 51.5 58.3334 51.5H57.3334V52.5C57.3334 58.3819 52.5486 63.1667 46.6667 63.1667H30.1667V56.4167H39.8334V58.3333V59.3333H40.8334H46.6667C50.4361 59.3333 53.5 56.2694 53.5 52.5V34.5829C53.5 34.0746 53.702 33.5871 54.0614 33.2276C54.4209 32.8682 54.9084 32.6662 55.4167 32.6662H58.065H59.219L59.0549 31.524C57.3638 19.7535 47.2376 10.6666 35 10.6666C22.7625 10.6666 12.6363 19.7535 10.9452 31.524Z"
        stroke="#1778CD" stroke-width="2" />
</svg>