<?xml version="1.0" ?><svg viewBox="0 0 24 24" xmlns="http://www.w3.org/2000/svg">
    <title />
    <path
        d="M22.5,5H19a4,4,0,0,0-8,0H7.5a.49971.49971,0,0,0-.5.5v3a.5.5,0,0,0,1,0V6h3V7.5a.5.5,0,0,0,1,0V6h6V7.5a.5.5,0,0,0,1,0V6h3V19a1.0013,1.0013,0,0,1-1,1H13.5a.5.5,0,0,0,0,1H21a2.002,2.002,0,0,0,2-2V5.5A.49971.49971,0,0,0,22.5,5ZM12,5a3,3,0,0,1,6,0Z" />
    <path
        d="M11.5,13H9v-.5a2.5,2.5,0,0,0-5,0V13H1.5a.49971.49971,0,0,0-.5.5V21a2.002,2.002,0,0,0,2,2h7a2.002,2.002,0,0,0,2-2V13.5A.49971.49971,0,0,0,11.5,13ZM5,12.5a1.5,1.5,0,0,1,3,0V13H5ZM11,21a1.0013,1.0013,0,0,1-1,1H3a1.0013,1.0013,0,0,1-1-1V14H4v.5a.5.5,0,0,0,1,0V14H8v.5a.5.5,0,0,0,1,0V14h2Z" />
</svg>